<svg width="22" height="28" viewBox="0 0 22 28" fill="none" xmlns="http://www.w3.org/2000/svg">
<path d="M12.3782 3.82722L11.7031 3.11004V4.09495V26.1745C11.7031 26.574 11.3837 26.8906 11 26.8906C10.6163 26.8906 10.2969 26.574 10.2969 26.1745V4.06009V3.07213L9.62123 3.79296L1.66399 12.2826C1.66398 12.2826 1.66396 12.2826 1.66394 12.2826C1.39681 12.5667 0.953864 12.5777 0.673111 12.3071C0.389742 12.0339 0.37855 11.5781 0.648731 11.2911L0.648737 11.2911L9.71596 1.65794C10.0759 1.2948 10.5246 1.10938 11 1.10938C11.4777 1.10938 11.9258 1.29646 12.2662 1.63878L21.3513 11.2905L21.6357 11.0228L21.3513 11.2905C21.6215 11.5776 21.6103 12.0334 21.3269 12.3065L21.3267 12.3066C21.1904 12.4382 21.0169 12.5026 20.8438 12.5026C20.6592 12.5026 20.4751 12.4294 20.3365 12.282L20.3364 12.2818L12.3782 3.82722Z" fill="black" stroke="black" stroke-width="0.78125"/>
</svg>
