<svg width="20" height="20" viewBox="0 0 20 20" fill="none" xmlns="http://www.w3.org/2000/svg">
<mask id="mask0" mask-type="alpha" maskUnits="userSpaceOnUse" x="0" y="0" width="19" height="19">
<path fill-rule="evenodd" clip-rule="evenodd" d="M13.0835 14.3765L9.85098 11.144L6.61849 14.3765C6.26144 14.7335 5.68255 14.7335 5.3255 14.3765C4.96845 14.0194 4.96845 13.4405 5.3255 13.0835L8.55799 9.85097L5.3255 6.61848C4.96845 6.26143 4.96845 5.68254 5.3255 5.32549C5.68255 4.96844 6.26144 4.96844 6.61849 5.32549L9.85098 8.55798L13.0835 5.32549C13.4405 4.96844 14.0194 4.96844 14.3765 5.32549C14.7335 5.68254 14.7335 6.26143 14.3765 6.61848L11.144 9.85097L14.3765 13.0835C14.7335 13.4405 14.7335 14.0194 14.3765 14.3765C14.0194 14.7335 13.4405 14.7335 13.0835 14.3765Z" fill="black"/>
</mask>
<g mask="url(#mask0)">
<g filter="url(#filter0_d)">
<path d="M0 0H20V20H0V0Z" fill="black"/>
<path d="M0.5 0.5H19.5V19.5H0.5V0.5Z" stroke="black"/>
</g>
</g>
<defs>
<filter id="filter0_d" x="-4" y="0" width="28" height="28" filterUnits="userSpaceOnUse" color-interpolation-filters="sRGB">
<feFlood flood-opacity="0" result="BackgroundImageFix"/>
<feColorMatrix in="SourceAlpha" type="matrix" values="0 0 0 0 0 0 0 0 0 0 0 0 0 0 0 0 0 0 127 0"/>
<feOffset dy="4"/>
<feGaussianBlur stdDeviation="2"/>
<feColorMatrix type="matrix" values="0 0 0 0 0 0 0 0 0 0 0 0 0 0 0 0 0 0 0.25 0"/>
<feBlend mode="normal" in2="BackgroundImageFix" result="effect1_dropShadow"/>
<feBlend mode="normal" in="SourceGraphic" in2="effect1_dropShadow" result="shape"/>
</filter>
</defs>
</svg>
