<svg width="16" height="15" viewBox="0 0 16 15" fill="none" xmlns="http://www.w3.org/2000/svg">
<path fill-rule="evenodd" clip-rule="evenodd" d="M13.5815 0.146447C13.7767 -0.0488155 14.0933 -0.0488155 14.2886 0.146447C14.4838 0.341709 14.4838 0.658291 14.2886 0.853553L8.2782 6.86394L14.9957 13.5815C15.191 13.7767 15.191 14.0933 14.9957 14.2886C14.8005 14.4838 14.4839 14.4838 14.2886 14.2886L7.57109 7.57104L0.853553 14.2886C0.658291 14.4838 0.341709 14.4838 0.146447 14.2886C-0.0488156 14.0933 -0.0488154 13.7767 0.146447 13.5815L6.86398 6.86394L0.853599 0.853553C0.658336 0.658291 0.658336 0.341709 0.853599 0.146447C1.04886 -0.0488155 1.36544 -0.0488155 1.56071 0.146447L7.57109 6.15683L13.5815 0.146447Z" fill="#F5F5F5"/>
</svg>
